<svg width="67" height="50" viewBox="0 0 67 50" fill="none" xmlns="http://www.w3.org/2000/svg">
<g id="Frame">
<g id="Group">
<path id="Vector" d="M29.524 23.5784C29.5798 23.7229 29.6915 23.834 29.8366 23.834C29.9818 23.834 30.0935 23.7451 30.1158 23.5784L30.8193 21.5229L31.5228 23.5784C31.5786 23.7229 31.668 23.834 31.802 23.834H31.8355C31.9806 23.834 32.0923 23.7451 32.1146 23.5784L33.0526 21.0118C33.0526 20.9784 33.0861 20.9229 33.0861 20.8673C33.0861 20.7229 32.9745 20.6118 32.807 20.6118C32.6618 20.6118 32.5836 20.7006 32.5501 20.8118L31.8131 22.9562L31.1096 20.8451C31.0538 20.7006 30.9645 20.6229 30.8305 20.6229H30.797C30.6518 20.6229 30.5736 20.7118 30.5178 20.8451L29.8143 22.9562L29.1108 20.8451C29.055 20.7006 28.9656 20.6229 28.8316 20.6229C28.6865 20.6229 28.5525 20.734 28.5525 20.8784C28.5525 20.934 28.586 20.9673 28.586 21.0229L29.524 23.5784ZM34.5378 23.834C35.0515 23.834 35.3865 23.6118 35.5875 23.4118V23.5562C35.5875 23.7006 35.6991 23.8118 35.8666 23.8118C36.0118 23.8118 36.1235 23.7006 36.1235 23.534V21.9006C36.1235 21.5006 36.0118 21.2006 35.7885 20.9673C35.5651 20.7451 35.219 20.634 34.7723 20.634C34.4038 20.634 34.0911 20.6895 33.7561 20.834C33.6668 20.8673 33.5886 20.9451 33.5886 21.0562C33.5886 21.2006 33.7003 21.3118 33.8455 21.3118C33.879 21.3118 33.9013 21.3118 33.9571 21.2784C34.214 21.1673 34.4708 21.1118 34.7165 21.1118C35.1185 21.1118 35.5651 21.2562 35.5651 21.8673V21.9006C35.3418 21.8451 35.085 21.7895 34.683 21.7895C33.8566 21.7895 33.3206 22.1895 33.3206 22.8006C33.3541 23.4895 33.946 23.834 34.5378 23.834ZM33.9236 22.8118C33.9236 22.4451 34.2363 22.2451 34.75 22.2451C35.0291 22.2451 35.3195 22.2784 35.5986 22.3562V22.6118C35.5986 23.034 35.1743 23.3673 34.6383 23.3673C34.2921 23.3784 33.9236 23.2118 33.9236 22.8118ZM37.1508 23.8006C37.296 23.8006 37.43 23.6895 37.43 23.5229V22.5118C37.43 21.7562 37.7985 21.2673 38.4461 21.1895C38.5913 21.1562 38.703 21.0451 38.703 20.9118C38.703 20.7451 38.5913 20.634 38.4238 20.634C38.0553 20.634 37.6645 20.8895 37.43 21.2784V20.9118C37.43 20.7451 37.3183 20.634 37.1508 20.634C37.0056 20.634 36.8716 20.7451 36.8716 20.9118V23.534C36.8605 23.6895 37.0056 23.8006 37.1508 23.8006ZM41.651 23.1784C41.651 23.034 41.5393 22.9229 41.3941 22.9229C41.3048 22.9229 41.249 22.9562 41.2266 22.9784C40.9698 23.2006 40.713 23.3118 40.378 23.3118C39.842 23.3118 39.44 22.9451 39.3618 22.3784H41.4835C41.6286 22.3784 41.7403 22.2673 41.7403 22.1229C41.7403 21.334 41.2266 20.5451 40.2998 20.5451C39.4511 20.5451 38.8035 21.2451 38.8035 22.1784C38.8035 23.1118 39.4846 23.8118 40.3668 23.8118C40.847 23.8118 41.2155 23.6673 41.5616 23.334C41.6286 23.3229 41.651 23.2673 41.651 23.1784ZM40.3221 21.0673C40.914 21.0673 41.1708 21.5451 41.2266 22.0006H39.3841C39.44 21.4562 39.842 21.0673 40.3221 21.0673ZM44.5431 23.5229C44.5431 23.6895 44.6548 23.8006 44.8223 23.8006C44.9675 23.8006 45.1015 23.6895 45.1015 23.5229V21.8562C45.1015 21.1006 44.6213 20.5895 43.8843 20.5895C43.46 20.5895 43.1473 20.7562 42.8905 21.0673V19.6562C42.8905 19.5118 42.7788 19.3784 42.6113 19.3784C42.4661 19.3784 42.3321 19.4895 42.3321 19.6562V23.5229C42.3321 23.6895 42.4438 23.8006 42.6113 23.8006C42.7788 23.8006 42.8905 23.6895 42.8905 23.5229V22.0006C42.8905 21.4673 43.2255 21.1006 43.7391 21.1006C44.2193 21.1006 44.532 21.4118 44.532 21.9784V23.5229H44.5431ZM48.9316 22.2229C48.9316 21.2895 48.2281 20.5895 47.2901 20.5895C46.3856 20.5895 45.6486 21.2895 45.6486 22.2229C45.6486 23.1229 46.3521 23.834 47.2678 23.834C48.1946 23.8562 48.9316 23.1229 48.9316 22.2229ZM48.3621 22.2229C48.3621 22.8451 47.9043 23.3229 47.2901 23.3229C46.6983 23.3229 46.2181 22.8451 46.2181 22.2006C46.2181 21.5562 46.676 21.0784 47.2678 21.0784C47.882 21.1006 48.3621 21.5784 48.3621 22.2229ZM51.6786 23.3784V23.5451C51.6786 23.7118 51.7903 23.8229 51.9578 23.8229C52.103 23.8229 52.237 23.7118 52.237 23.5451V20.9229C52.237 20.7562 52.1253 20.6451 51.9578 20.6451C51.8126 20.6451 51.6786 20.7562 51.6786 20.9229V22.4451C51.6786 22.9784 51.3436 23.3451 50.83 23.3451C50.3498 23.3451 50.0371 23.034 50.0371 22.5006V20.9451C50.0371 20.8006 49.9255 20.6673 49.758 20.6673C49.5905 20.6673 49.4788 20.7784 49.4788 20.9451V22.6118C49.4788 23.3673 49.959 23.8784 50.696 23.8784C51.0868 23.834 51.4218 23.6895 51.6786 23.3784ZM52.8735 23.434C53.2085 23.6895 53.6663 23.834 54.0683 23.834C54.7495 23.834 55.1961 23.434 55.1961 22.8784C55.1961 22.2562 54.6043 22.0895 54.18 21.9784C53.8115 21.8673 53.443 21.7562 53.443 21.5229C53.443 21.3006 53.6663 21.1229 53.979 21.1229C54.2023 21.1229 54.4926 21.2118 54.7383 21.3451C54.7718 21.3451 54.7941 21.3784 54.85 21.3784C54.9951 21.3784 55.1068 21.2673 55.1068 21.1229C55.1068 21.034 55.051 20.9562 54.9616 20.9006C54.649 20.734 54.2805 20.6451 53.9678 20.6451C53.3201 20.6451 52.8958 21.0118 52.8958 21.5784C52.8958 22.2006 53.4876 22.3673 53.9455 22.4784C54.3475 22.5895 54.649 22.7006 54.649 22.9562C54.649 23.2118 54.4256 23.3784 54.0795 23.3784C53.7668 23.3784 53.4541 23.2673 53.1415 23.0673C53.108 23.034 53.0521 23.0118 52.9963 23.0118C52.8511 23.0118 52.7395 23.1229 52.7395 23.2673C52.7506 23.3451 52.8065 23.4118 52.8735 23.434ZM58.5908 22.1673C58.5908 21.3784 58.0771 20.5895 57.1168 20.5895C56.2681 20.5895 55.6205 21.2895 55.6205 22.2229C55.6205 23.1562 56.3016 23.8562 57.1838 23.8562C57.664 23.8562 58.0325 23.7118 58.3786 23.3784C58.4345 23.3229 58.468 23.2673 58.468 23.1784C58.468 23.034 58.3563 22.9229 58.2111 22.9229C58.1218 22.9229 58.066 22.9562 58.0436 22.9784C57.7868 23.2006 57.53 23.3118 57.195 23.3118C56.659 23.3118 56.257 22.9451 56.1788 22.3784H58.3005C58.4791 22.4451 58.5908 22.3118 58.5908 22.1673ZM56.1788 22.0006C56.2681 21.4673 56.6366 21.0673 57.1168 21.0673C57.7086 21.0673 57.9655 21.5451 58.0213 22.0006H56.1788ZM29.9483 27.5229C29.5463 27.4118 29.2113 27.3006 29.2113 27.0451C29.2113 26.8229 29.4346 26.6451 29.7473 26.6451C29.9706 26.6451 30.261 26.734 30.5066 26.8673C30.5401 26.8673 30.5625 26.9006 30.6183 26.9006C30.7635 26.9006 30.8751 26.7895 30.8751 26.6451C30.8751 26.5562 30.8193 26.4784 30.73 26.4229C30.4173 26.2562 30.0488 26.1673 29.7361 26.1673C29.0885 26.1673 28.6641 26.534 28.6641 27.0673C28.6641 27.6895 29.256 27.8562 29.7138 27.9673C30.1158 28.0784 30.4173 28.1895 30.4173 28.4451C30.4173 28.7006 30.194 28.8673 29.8478 28.8673C29.5351 28.8673 29.2225 28.7562 28.9098 28.5562C28.8763 28.5229 28.8205 28.5006 28.7646 28.5006C28.6195 28.5006 28.5078 28.6118 28.5078 28.7562C28.5078 28.8673 28.5636 28.9229 28.6195 28.9562C28.9545 29.2118 29.4123 29.3562 29.8143 29.3562C30.4955 29.3562 30.9421 28.9562 30.9421 28.4006C30.9756 27.834 30.3503 27.634 29.9483 27.5229ZM32.9521 26.734C33.0973 26.734 33.209 26.6229 33.209 26.4784C33.209 26.334 33.0973 26.2229 32.9521 26.2229H32.2151V25.5784C32.2151 25.434 32.07 25.3006 31.936 25.3006C31.802 25.3006 31.6568 25.4118 31.6568 25.5784V26.2229H31.4558C31.3106 26.2229 31.199 26.334 31.199 26.4784C31.199 26.6229 31.3106 26.734 31.4558 26.734H31.6568V28.5118C31.6568 29.1006 31.9695 29.4118 32.5613 29.4118C32.7288 29.4118 32.874 29.3784 33.0191 29.3229C33.1308 29.2895 33.1866 29.2118 33.1866 29.1006C33.1866 28.9562 33.075 28.8451 32.9298 28.8451C32.8963 28.8451 32.8963 28.8451 32.874 28.8451C32.8181 28.8451 32.7623 28.8784 32.6506 28.8784C32.338 28.8784 32.1928 28.734 32.1928 28.4229V26.7006L32.9521 26.734ZM34.9621 26.2006C34.5936 26.2006 34.281 26.2562 33.946 26.4006C33.8566 26.434 33.8008 26.5118 33.8008 26.6229C33.8008 26.7673 33.9125 26.8784 34.0576 26.8784C34.0911 26.8784 34.1135 26.8784 34.1693 26.8451C34.4261 26.734 34.683 26.6784 34.9286 26.6784C35.3306 26.6784 35.7773 26.8229 35.7773 27.434V27.4673C35.554 27.4118 35.2971 27.3562 34.8951 27.3562C34.0688 27.3562 33.5328 27.7562 33.5328 28.3673C33.5328 29.0118 34.1246 29.3562 34.7276 29.3562C35.2413 29.3562 35.5763 29.134 35.7773 28.934V29.0784C35.7773 29.2229 35.889 29.334 36.0341 29.334C36.1793 29.334 36.291 29.2229 36.291 29.0562V27.3895C36.291 26.9895 36.1793 26.6895 35.9783 26.4562C35.755 26.3118 35.42 26.2006 34.9621 26.2006ZM35.7885 28.1673C35.7885 28.5895 35.3641 28.9229 34.8281 28.9229C34.4931 28.9229 34.1246 28.7562 34.1246 28.3895C34.1246 28.0229 34.4373 27.8229 34.951 27.8229C35.2301 27.8229 35.5205 27.8562 35.7996 27.934V28.1673H35.7885ZM38.4461 26.734C38.5913 26.734 38.703 26.6229 38.703 26.4784C38.703 26.334 38.5913 26.2229 38.4461 26.2229H37.7091V25.5784C37.7091 25.434 37.564 25.3006 37.43 25.3006C37.2848 25.3006 37.1508 25.4118 37.1508 25.5784V26.2229H36.9498C36.8046 26.2229 36.693 26.334 36.693 26.4784C36.693 26.6229 36.8046 26.734 36.9498 26.734H37.1508V28.5118C37.1508 29.1006 37.4635 29.4118 38.0553 29.4118C38.2228 29.4118 38.368 29.3784 38.5131 29.3229C38.6248 29.2895 38.6806 29.2118 38.6806 29.1006C38.6806 28.9562 38.569 28.8451 38.4238 28.8451C38.3903 28.8451 38.3903 28.8451 38.368 28.8451C38.3121 28.8451 38.2563 28.8784 38.1446 28.8784C37.832 28.8784 37.6868 28.734 37.6868 28.4229V26.7006L38.4461 26.734ZM39.5851 26.2006C39.44 26.2006 39.306 26.3118 39.306 26.4784V29.1006C39.306 29.2673 39.4176 29.3784 39.5851 29.3784C39.7526 29.3784 39.8643 29.2673 39.8643 29.1006V26.4784C39.8643 26.3118 39.7526 26.2006 39.5851 26.2006ZM39.5851 25.0451C39.4176 25.0451 39.2725 25.1562 39.2725 25.3229V25.4118C39.2725 25.5784 39.4176 25.6895 39.5851 25.6895C39.7526 25.6895 39.8978 25.5784 39.8978 25.4118V25.3229C39.8978 25.1562 39.7861 25.0451 39.5851 25.0451ZM42.1311 26.1673C41.2266 26.1673 40.4896 26.8673 40.4896 27.8006C40.4896 28.7006 41.1931 29.4118 42.1088 29.4118C43.0245 29.4118 43.7503 28.7118 43.7503 27.7784C43.7726 26.8784 43.0691 26.1673 42.1311 26.1673ZM43.2143 27.8006C43.2143 28.4229 42.7565 28.9006 42.1423 28.9006C41.5505 28.9006 41.0703 28.4229 41.0703 27.7784C41.0703 27.134 41.5281 26.6562 42.12 26.6562C42.723 26.6784 43.2143 27.1562 43.2143 27.8006ZM45.9055 26.1673C45.4811 26.1673 45.1685 26.334 44.9116 26.6451V26.4784C44.9116 26.3118 44.8 26.2006 44.6325 26.2006C44.4873 26.2006 44.3533 26.3118 44.3533 26.4784V29.1006C44.3533 29.2673 44.465 29.3784 44.6325 29.3784C44.8 29.3784 44.9116 29.2673 44.9116 29.1006V27.5784C44.9116 27.0451 45.2466 26.6784 45.7603 26.6784C46.2405 26.6784 46.5531 26.9895 46.5531 27.5229V29.0784C46.5531 29.2451 46.6648 29.3562 46.8323 29.3562C46.9775 29.3562 47.1115 29.2451 47.1115 29.0784V27.4118C47.1226 26.6451 46.6425 26.1673 45.9055 26.1673ZM49.1885 26.1673C48.3398 26.1673 47.6921 26.8673 47.6921 27.7784C47.6921 28.7118 48.3733 29.4118 49.2555 29.4118C49.7356 29.4118 50.1041 29.2673 50.4503 28.934C50.5061 28.8784 50.5396 28.8229 50.5396 28.734C50.5396 28.5895 50.428 28.4784 50.2828 28.4784C50.1935 28.4784 50.1376 28.5118 50.1153 28.534C49.8585 28.7562 49.6016 28.8673 49.2666 28.8673C48.7306 28.8673 48.3286 28.5006 48.2505 27.934H50.3721C50.5173 27.934 50.629 27.8229 50.629 27.6784C50.629 26.9562 50.1265 26.1673 49.1885 26.1673ZM48.2505 27.5784C48.3398 27.0451 48.7083 26.6451 49.1885 26.6451C49.7803 26.6451 50.0371 27.1229 50.093 27.5784H48.2505ZM52.7506 26.2006C52.3821 26.2006 51.9913 26.4562 51.7568 26.8451V26.4784C51.7568 26.3118 51.6451 26.2006 51.4776 26.2006C51.3325 26.2006 51.1985 26.3118 51.1985 26.4784V29.1006C51.1985 29.2673 51.3101 29.3784 51.4776 29.3784C51.6228 29.3784 51.7568 29.2673 51.7568 29.1006V28.0895C51.7568 27.334 52.1253 26.8451 52.773 26.7673C52.9181 26.734 53.0298 26.6229 53.0298 26.4895C53.041 26.3118 52.9293 26.2006 52.7506 26.2006ZM55.9555 26.2006C55.8661 26.2006 55.7545 26.234 55.6986 26.4006L54.7941 28.6562L53.8003 26.4006C53.7445 26.2562 53.6551 26.2006 53.5211 26.2006C53.3536 26.2006 53.242 26.3118 53.242 26.4784C53.242 26.534 53.242 26.5673 53.2755 26.6229L54.5261 29.2673V29.3006C54.3586 29.6673 54.2135 29.8118 53.9566 29.8118C53.8115 29.8118 53.7333 29.7784 53.644 29.7562C53.6105 29.7562 53.5546 29.7229 53.4988 29.7229C53.3536 29.7229 53.242 29.834 53.242 29.9784C53.242 30.0895 53.2978 30.1784 53.4095 30.234C53.5546 30.2895 53.6886 30.3229 53.9231 30.3229C54.4033 30.3229 54.716 30.0673 54.9951 29.4451L56.19 26.6229C56.19 26.5895 56.2235 26.534 56.2235 26.5118C56.2346 26.3118 56.1006 26.2006 55.9555 26.2006Z" fill="black"/>
<path id="Vector_2" d="M17.1513 16.2783C12.2827 16.2783 8.34082 20.2005 8.34082 25.045C8.34082 29.8894 12.2827 33.8117 17.1513 33.8117C22.02 33.8117 25.9618 29.8894 25.9618 25.045C25.9618 20.1894 22.02 16.2783 17.1513 16.2783Z" fill="white" stroke="black" stroke-width="0.333333" stroke-miterlimit="10"/>
<path id="Vector_3" d="M15.0855 29.4897C15.0855 29.2342 14.8845 29.012 14.6276 29.012C14.3708 29.012 14.1475 29.212 14.1475 29.4897C14.1475 29.7453 14.3485 29.9453 14.6276 29.9453C14.851 29.9453 15.0855 29.7453 15.0855 29.4897Z" fill="#777777"/>
<path id="Vector_4" d="M16.7827 29.4897C16.7827 29.2342 16.5817 29.012 16.3026 29.012C16.0457 29.012 15.8447 29.212 15.8447 29.4897C15.8447 29.7453 16.0457 29.9453 16.3026 29.9453C16.5594 29.9453 16.7827 29.7453 16.7827 29.4897Z" fill="#999999"/>
<path id="Vector_5" d="M18.4804 29.4897C18.4804 29.2342 18.2794 29.012 18.0002 29.012C17.721 29.012 17.52 29.212 17.52 29.4897C17.52 29.7453 17.721 29.9453 18.0002 29.9453C18.2794 29.9453 18.4804 29.7453 18.4804 29.4897Z" fill="#BBBBBA"/>
<path id="Vector_6" d="M20.1553 29.4897C20.1553 29.2342 19.9543 29.012 19.6751 29.012C19.4183 29.012 19.2173 29.212 19.2173 29.4897C19.2173 29.7453 19.4183 29.9453 19.6751 29.9453C19.9543 29.9453 20.1553 29.7453 20.1553 29.4897Z" fill="#E5E4E4"/>
<path id="Vector_7" d="M18.625 23.1564L17.2962 26.8786C17.1287 27.3341 16.8384 27.523 16.4699 27.523H16.414C16.0455 27.523 15.7664 27.323 15.6212 26.9008L14.7949 24.2786L13.9462 26.9008C13.801 27.323 13.4884 27.523 13.1534 27.523H13.0975C12.729 27.523 12.4499 27.323 12.2712 26.8786L10.9982 23.2119C10.9647 23.123 10.9424 22.9897 10.9424 22.8453C10.9424 22.5119 11.2215 22.1675 11.6459 22.1675C12.0144 22.1675 12.2712 22.3897 12.3494 22.7341L13.1422 25.3786L13.9685 22.7564C14.0802 22.423 14.3371 22.1675 14.7279 22.1675H14.8172C15.1857 22.1675 15.4649 22.423 15.5765 22.7564L16.4029 25.4008L17.2292 22.7564C17.3185 22.4453 17.5419 22.1897 17.9327 22.1897C18.3235 22.1897 18.6139 22.5008 18.6139 22.8675C18.6809 22.9564 18.6474 23.1008 18.625 23.1564Z" fill="#333333"/>
<path id="Vector_8" d="M23.0356 25.8564C23.0356 27.0119 22.1535 27.5453 21.0256 27.5453C20.378 27.5453 19.6968 27.3453 19.038 26.9564C18.8705 26.8675 18.7588 26.6786 18.7588 26.4453C18.7588 26.1119 19.0156 25.8564 19.3506 25.8564C19.4623 25.8564 19.574 25.8897 19.6298 25.9453C20.1435 26.2564 20.6236 26.423 21.048 26.423C21.4723 26.423 21.6733 26.2786 21.6733 26.023V25.9897C21.6733 25.6786 21.1596 25.5675 20.6013 25.4008C19.8643 25.2008 19.038 24.8342 19.038 23.8453V23.8119C19.038 22.7453 19.8866 22.1453 20.9363 22.1453C21.4723 22.1453 22.0418 22.2897 22.5555 22.5453C22.7788 22.6564 22.8905 22.8564 22.8905 23.1119C22.8905 23.4453 22.6336 23.7008 22.2986 23.7008C22.187 23.7008 22.1311 23.6675 22.0195 23.6453C21.5951 23.4453 21.1931 23.3119 20.8916 23.3119C20.5231 23.3119 20.3556 23.4564 20.3556 23.6786V23.7119C20.3556 23.9897 20.8693 24.1342 21.4276 24.3342C22.187 24.5342 23.0356 24.8675 23.0356 25.8564Z" fill="#333333"/>
</g>
</g>
</svg>
