<svg width="70" height="8" viewBox="0 0 70 8" fill="none" xmlns="http://www.w3.org/2000/svg">
<g id="Frame" clip-path="url(#clip0_3919_3325)">
<g id="Group">
<path id="Vector" d="M68.4969 7.89551C68.6769 7.89551 68.8191 7.83232 68.9233 7.70552C69.0296 7.59293 69.0819 7.45272 69.0819 7.28566C69.0748 7.11873 69.0226 6.98549 68.9233 6.88678C68.8191 6.79024 68.6805 6.74288 68.5076 6.74288C68.3134 6.75002 68.1676 6.81272 68.0686 6.9323C67.9785 7.05532 67.9316 7.18351 67.9316 7.31742C67.9316 7.44927 67.9785 7.57574 68.0686 7.69532C68.1603 7.82855 68.3025 7.89551 68.4969 7.89551Z" fill="#525252"/>
<path id="Vector_2" d="M5.76896 7.85257C6.12828 7.85257 6.48208 7.83264 6.83189 7.79503C7.19297 7.75193 7.48359 7.69618 7.70412 7.62532C7.79841 7.58453 7.86499 7.54669 7.89857 7.51551C7.92805 7.48227 7.95787 7.4232 7.98946 7.33766C8.04465 7.14012 8.09855 6.89488 8.14657 6.59873C8.20047 6.30442 8.22619 6.1284 8.22619 6.07417C8.22619 5.98532 8.20047 5.93431 8.14657 5.9241C8.09115 5.9241 8.05592 5.97511 8.04113 6.07417C8.02797 6.17438 7.98735 6.30601 7.92065 6.47053C7.85771 6.64011 7.76506 6.78458 7.64094 6.90313C7.42805 7.09575 7.16514 7.22577 6.8542 7.28964C6.53938 7.36393 6.17807 7.39992 5.77096 7.39992C4.60235 7.38685 3.66895 7.01859 2.97098 6.29134C2.25246 5.58702 1.89138 4.75143 1.88398 3.78386C1.87658 3.27732 1.94504 2.80506 2.08947 2.37236C2.21735 1.93783 2.47298 1.55109 2.85614 1.20896C2.95266 1.11713 3.0709 1.02645 3.20806 0.939319C3.34309 0.861928 3.50796 0.787973 3.70053 0.714024C3.89675 0.643049 4.13219 0.585368 4.40414 0.544551C4.66705 0.50649 4.97447 0.486878 5.32815 0.486878C6.33002 0.506485 7.0449 0.692347 7.47643 1.04961C7.62075 1.16151 7.73183 1.30458 7.81332 1.48046C7.8893 1.65806 7.92805 1.84736 7.92805 2.05328C7.92065 2.19121 7.95036 2.26035 8.01694 2.26035C8.07436 2.26701 8.10594 2.19774 8.11322 2.05328C8.12074 1.80299 8.12978 1.46373 8.14481 1.03641C8.17253 0.712179 8.19119 0.526086 8.19847 0.481716C8.20951 0.424162 8.16325 0.389888 8.06132 0.37659C7.73371 0.348525 7.36699 0.29943 6.9634 0.228575C6.3966 0.149462 5.87641 0.109891 5.40413 0.109891C4.58744 0.116683 3.9173 0.215385 3.39136 0.409494C2.86342 0.611856 2.43963 0.863742 2.12106 1.16597C1.65441 1.61553 1.33572 2.09089 1.16346 2.5878C0.993198 3.08964 0.909944 3.51384 0.917459 3.86125C0.909944 4.3366 0.998834 4.83237 1.18577 5.34534C1.37459 5.86162 1.71911 6.34236 2.21911 6.78664C3.02088 7.4905 4.20428 7.84593 5.76896 7.85109V7.85257Z" fill="#525252"/>
<path id="Vector_3" d="M11.6703 1.62941C11.6703 1.58022 11.6966 1.54695 11.7491 1.52975C11.8706 1.50246 12.0845 1.48539 12.3902 1.47657C13.4751 1.49652 14.0274 2.07424 14.0454 3.21161C14.0338 3.88267 13.8382 4.32604 13.4603 4.54411C13.3519 4.60889 13.2351 4.65235 13.11 4.67528C12.982 4.69681 12.8604 4.70845 12.7454 4.70845C12.5266 4.70845 12.326 4.69413 12.142 4.66657C11.9545 4.63757 11.8214 4.60741 11.741 4.57256C11.6932 4.54252 11.6703 4.50629 11.6703 4.46753V1.62941ZM10.9091 5.22941C10.9091 6.09264 10.8926 6.72243 10.858 7.11752C10.8451 7.24628 10.8202 7.34856 10.7842 7.42813C10.7464 7.51595 10.6807 7.5712 10.5836 7.59413C10.4883 7.61566 10.393 7.6273 10.296 7.6273C10.2467 7.63593 10.2221 7.65347 10.2221 7.68049C10.2221 7.72382 10.273 7.74585 10.3767 7.74585C10.8138 7.73402 11.113 7.72683 11.2708 7.72098C11.4236 7.72683 11.815 7.73406 12.4462 7.74585C12.5497 7.74585 12.6006 7.72384 12.6006 7.68049C12.6006 7.65344 12.5758 7.63452 12.5266 7.6273C12.4049 7.6273 12.2587 7.6157 12.0909 7.59413C11.9513 7.57119 11.8592 7.51595 11.815 7.42813C11.7655 7.34994 11.7341 7.24628 11.7212 7.11924C11.6801 6.72242 11.6636 6.09262 11.6703 5.231V5.02315C11.6703 4.97717 11.6932 4.95515 11.7394 4.95515L12.9163 4.97108C12.9655 4.97108 13.0066 4.98838 13.0378 5.02153C13.2796 5.32502 13.6263 5.75189 14.0765 6.30509C14.3445 6.6299 14.5812 6.89693 14.7866 7.10594C14.9825 7.31828 15.1762 7.47571 15.3703 7.58073C15.4903 7.64012 15.6284 7.68047 15.7795 7.70398C15.926 7.73093 16.1298 7.74585 16.3908 7.74585H17.0681C17.2292 7.74585 17.3083 7.72384 17.3016 7.68049C17.2917 7.65344 17.2622 7.6359 17.2127 7.6273C17.1502 7.63593 17.0254 7.62729 16.8398 7.60148C16.7246 7.59093 16.57 7.54209 16.3744 7.4584C16.169 7.37608 15.9357 7.21729 15.6742 6.97939C15.1286 6.42343 14.4663 5.68471 13.6904 4.76221C14.1176 4.39795 14.4201 4.0533 14.5978 3.72837C14.762 3.39943 14.8441 3.07564 14.8441 2.75943C14.8377 2.45216 14.7586 2.19671 14.6078 1.9932C14.5449 1.89207 14.4793 1.8055 14.4068 1.7351C14.3297 1.66551 14.2575 1.61199 14.1902 1.57885C13.9337 1.41754 13.6574 1.31068 13.3584 1.25714C13.0592 1.21826 12.7534 1.19785 12.4394 1.19785C11.9696 1.20955 11.5946 1.21826 11.3136 1.2239C11.146 1.21232 10.7857 1.20374 10.2319 1.19785C10.1282 1.19785 10.0776 1.21964 10.0776 1.26298C10.0776 1.29895 10.1037 1.31617 10.1564 1.31617C10.2714 1.31617 10.3798 1.32498 10.4784 1.34224C10.6396 1.36368 10.7499 1.41595 10.8055 1.49815C10.8548 1.57153 10.8829 1.68458 10.8893 1.83741C10.9025 1.92249 10.9091 2.54771 10.9091 3.7127L10.9091 5.22941Z" fill="#525252"/>
<path id="Vector_4" d="M19.32 4.87878C19.2895 4.87878 19.2797 4.85905 19.2926 4.81962L20.1154 2.48217C20.1671 2.34928 20.2154 2.34928 20.2572 2.48217L21.1498 4.81962C21.1691 4.85905 21.1545 4.87878 21.1078 4.87878H19.32ZM18.0122 6.79625C17.9365 7.01536 17.8382 7.19811 17.7189 7.3412C17.5997 7.49094 17.4355 7.58014 17.2262 7.60777C17.1311 7.61887 17.0393 7.62458 16.9508 7.62458C16.9024 7.62458 16.875 7.64203 16.8687 7.67837C16.8687 7.72114 16.9281 7.74314 17.0473 7.74314C17.5707 7.73131 17.9236 7.72434 18.104 7.71858C18.2828 7.7243 18.5275 7.73131 18.8353 7.74314C18.9205 7.74314 18.9675 7.72115 18.9721 7.67837C18.9721 7.64202 18.9414 7.62458 18.8821 7.62458H18.7901C18.708 7.62458 18.6307 7.60166 18.5614 7.55719C18.476 7.52404 18.4326 7.46329 18.4326 7.37546C18.4326 7.21391 18.476 7.02095 18.5614 6.79623L19.1236 5.25952C19.141 5.21503 19.1733 5.19199 19.2203 5.19199H21.2318C21.2754 5.19199 21.3029 5.2094 21.3142 5.24208L22.1887 7.37546C22.2126 7.44586 22.2192 7.49791 22.2064 7.53117C22.1887 7.57162 22.163 7.59743 22.1338 7.60774C22.0872 7.61334 22.0644 7.6332 22.0644 7.66977C22.0644 7.70693 22.1598 7.72744 22.3479 7.72744C23.0892 7.73868 23.5789 7.74316 23.8155 7.74316C23.9345 7.74316 23.9973 7.72115 24.0041 7.67837C24.0041 7.64202 23.9733 7.62461 23.912 7.62461C23.8121 7.63324 23.6864 7.61637 23.5369 7.57463C23.4432 7.5572 23.3306 7.4852 23.1985 7.35804C23.0552 7.23135 22.9006 6.98369 22.7315 6.6145C21.7877 4.38048 21.0596 2.6406 20.5507 1.39535C20.4556 1.17625 20.3865 1.07089 20.3396 1.08281C20.3043 1.0709 20.2346 1.18177 20.135 1.41532L18.0122 6.79625Z" fill="#525252"/>
<path id="Vector_5" d="M26.0529 2.41226C26.4809 2.85505 27.3044 3.68448 28.5235 4.90073C29.7943 6.13646 30.6177 6.92103 30.9904 7.25421C31.4328 7.65023 31.664 7.83573 31.6819 7.80959C31.7195 7.80959 31.7438 7.77657 31.7567 7.70858C31.762 7.6375 31.7651 7.4654 31.7651 7.19482L31.7845 2.10111C31.778 1.84049 31.8005 1.65245 31.8527 1.53642C31.8968 1.42085 31.991 1.35127 32.1359 1.328C32.2432 1.31228 32.32 1.30346 32.362 1.30346C32.4335 1.30346 32.4696 1.28297 32.4696 1.24271C32.4629 1.20375 32.4061 1.18504 32.2985 1.18504C32.108 1.18504 31.9408 1.1876 31.7957 1.19354C31.651 1.2049 31.5501 1.21082 31.4945 1.21082C31.3287 1.19933 31.0019 1.19055 30.5118 1.18504C30.3848 1.18504 30.3231 1.20371 30.3231 1.24271C30.3167 1.28295 30.3413 1.30346 30.3965 1.30346C30.5039 1.30346 30.6582 1.3179 30.8584 1.34541C31.011 1.37442 31.1139 1.44677 31.1629 1.56234C31.2069 1.68399 31.2278 1.88681 31.2278 2.17046L31.3337 6.59105C30.8941 6.14918 30.1378 5.39259 29.0634 4.32149C27.4072 2.68297 26.406 1.69007 26.058 1.34268C26.009 1.28775 25.9555 1.22961 25.897 1.16736C25.8286 1.10223 25.7731 1.0675 25.7309 1.062C25.6968 1.062 25.6706 1.0893 25.6529 1.14272C25.6331 1.20486 25.6251 1.32365 25.6251 1.49896L25.6152 6.47837C25.6152 6.85855 25.6006 7.13246 25.5696 7.29596C25.5291 7.45785 25.4509 7.5522 25.3336 7.58075C25.1664 7.62283 25.0377 7.64014 24.9449 7.63143C24.8928 7.63143 24.8667 7.64953 24.8667 7.68496C24.8667 7.72841 24.9173 7.75033 25.0182 7.75033C25.4917 7.73884 25.7945 7.73153 25.9261 7.72611C26.0305 7.73153 26.3639 7.73884 26.9255 7.75033C27.0359 7.75033 27.0913 7.72844 27.0913 7.68496C27.0913 7.64951 27.067 7.63143 27.0179 7.63143C26.9111 7.64015 26.7529 7.6228 26.5463 7.58075C26.4257 7.55221 26.3363 7.46402 26.2777 7.31314C26.2174 7.16879 26.1835 6.92264 26.1768 6.57387L26.0529 2.41226Z" fill="#525252"/>
<path id="Vector_6" d="M44.2396 7.39461C43.7068 7.38833 43.2668 7.2122 42.9197 6.86572C42.5646 6.5268 42.3856 6.08355 42.3793 5.53356C42.3793 5.1873 42.4593 4.89252 42.619 4.64979C42.7777 4.41349 42.9742 4.22318 43.214 4.07849C43.3598 4.2617 43.5451 4.47519 43.7726 4.71803C44.0025 4.9674 44.1836 5.15956 44.3131 5.29233C44.7339 5.70096 45.2952 6.18881 45.9974 6.75611C45.8438 6.91101 45.62 7.0525 45.3255 7.17896C45.0409 7.32205 44.6792 7.39461 44.2396 7.39461ZM43.9133 7.85083C44.2669 7.84451 44.5768 7.80151 44.847 7.71942C45.1177 7.64421 45.3496 7.55582 45.5413 7.45481C45.7446 7.34554 45.9062 7.23823 46.0261 7.13458C46.1381 7.03632 46.2197 6.96385 46.2694 6.91948C46.7587 7.27606 47.125 7.50135 47.3664 7.59766C47.6048 7.69019 47.8833 7.73353 48.2017 7.72803H49.1134C49.2092 7.72196 49.2605 7.70291 49.2668 7.67002C49.2668 7.62956 49.2251 7.60947 49.1406 7.60947C48.9646 7.60947 48.7791 7.57339 48.582 7.49976C48.3696 7.42891 48.1875 7.35356 48.0336 7.27606C47.9024 7.2052 47.7345 7.10283 47.5296 6.97121C47.3202 6.83845 47.0611 6.65396 46.7491 6.41709C46.9666 6.16874 47.1747 5.85423 47.3747 5.47278C47.5648 5.09775 47.6625 4.7311 47.6688 4.37303C47.6688 4.32488 47.6625 4.28475 47.6513 4.25012C47.6258 4.22317 47.5761 4.20564 47.501 4.19957C46.981 4.15771 46.6116 4.13616 46.3908 4.13616C46.2982 4.13616 46.2484 4.15631 46.2423 4.19691C46.2484 4.2357 46.2839 4.25448 46.3506 4.25448C46.4261 4.25448 46.5077 4.26022 46.5955 4.27205C46.6803 4.29341 46.7507 4.33521 46.8086 4.39449C46.9317 4.53299 46.9907 4.67334 46.9844 4.81757C46.9732 5.39657 46.8132 5.87719 46.5077 6.2583C45.9318 5.78467 45.3465 5.26643 44.7496 4.7052C44.2649 4.21987 43.9037 3.80977 43.6639 3.47785C43.4093 3.14134 43.2828 2.81065 43.2828 2.48745C43.2895 2.08352 43.4189 1.79185 43.673 1.61127C43.9071 1.43952 44.1706 1.35273 44.4651 1.35273C44.6681 1.35273 44.8506 1.39045 45.0137 1.46704C45.1624 1.53491 45.2889 1.62423 45.3911 1.73418C45.5097 1.84367 45.5913 1.96499 45.6375 2.09776C45.6678 2.23053 45.6823 2.3547 45.6823 2.47165C45.6759 2.5871 45.6951 2.64224 45.7383 2.63617C45.7767 2.64787 45.8086 2.59877 45.8344 2.48745C45.8519 2.401 45.8679 2.25104 45.8787 2.03996C45.8918 1.81914 45.8982 1.63718 45.8982 1.49306C45.8982 1.43951 45.8952 1.39596 45.8888 1.36167C45.8712 1.32844 45.8326 1.29803 45.7734 1.2735C45.5144 1.13511 45.1417 1.06242 44.6539 1.05691C44.0283 1.06874 43.5421 1.24736 43.1934 1.59396C42.8352 1.93024 42.6545 2.28257 42.6545 2.65199C42.6416 3.02163 42.7998 3.42017 43.1279 3.84886C42.7376 4.04366 42.4016 4.31067 42.1219 4.65303C41.8179 4.99928 41.6643 5.42672 41.6577 5.93497C41.6577 6.12129 41.7012 6.32296 41.789 6.54424C41.8771 6.76071 42.0068 6.96869 42.1792 7.16475C42.5377 7.60502 43.1166 7.83329 43.9133 7.85083Z" fill="#525252"/>
<path id="Vector_7" d="M55.6701 7.8479C56.0292 7.8479 56.3826 7.82804 56.733 7.79046C57.0939 7.74747 57.3846 7.69162 57.6049 7.62065C57.6995 7.57973 57.7661 7.54212 57.7995 7.51036C57.8293 7.47777 57.8586 7.41841 57.8902 7.33322C57.9459 7.13567 57.9997 6.89042 58.0477 6.59427C58.1012 6.29984 58.1272 6.12373 58.1272 6.0695C58.1272 5.98075 58.1012 5.92975 58.0477 5.91966C57.9921 5.91966 57.9572 5.97066 57.942 6.0695C57.929 6.1697 57.8886 6.30155 57.8218 6.46596C57.7587 6.63542 57.6662 6.78013 57.5422 6.89856C57.3293 7.0913 57.0663 7.22074 56.7553 7.28517C56.4403 7.35924 56.0792 7.39546 55.672 7.39546C54.5034 7.38239 53.5698 7.01389 52.8719 6.28687C52.1535 5.58244 51.7925 4.74639 51.785 3.77906C51.7777 3.2724 51.8463 2.8006 51.9906 2.36755C52.1185 1.93324 52.374 1.54688 52.7571 1.20452C52.8538 1.11222 52.9721 1.02153 53.1092 0.934854C53.2441 0.85712 53.409 0.783049 53.6016 0.708985C53.7981 0.638586 54.0332 0.58092 54.305 0.539642C54.5682 0.501923 54.8755 0.482308 55.229 0.482308C56.231 0.501915 56.9458 0.687553 57.3774 1.0447C57.5216 1.15683 57.6328 1.2999 57.7142 1.47579C57.7903 1.65361 57.8293 1.84279 57.8293 2.04848C57.8218 2.18652 57.8513 2.25544 57.9181 2.25544C57.9755 2.2621 58.0071 2.19317 58.0142 2.04848C58.0215 1.79853 58.031 1.45928 58.046 1.03174C58.0736 0.707496 58.0922 0.521643 58.0996 0.477041C58.1105 0.419714 58.0641 0.385199 57.9625 0.371785C57.6346 0.343805 57.268 0.294499 56.8643 0.223875C56.2977 0.144876 55.7773 0.105217 55.3052 0.105217C54.4884 0.112009 53.8182 0.21048 53.2922 0.404819C52.7646 0.607408 52.3406 0.859072 52.022 1.16153C51.5554 1.61097 51.2366 2.0862 51.0649 2.58323C50.8944 3.08495 50.8109 3.50929 50.8183 3.85681C50.8109 4.33216 50.8998 4.82699 51.0869 5.3403C51.2759 5.85715 51.6201 6.33791 52.1202 6.78173C52.9217 7.48594 54.1053 7.84125 55.6701 7.84652L55.6701 7.8479Z" fill="#525252"/>
<path id="Vector_8" d="M60.7566 4.12014C60.7627 3.17012 61.0276 2.45742 61.5497 1.98527C62.0591 1.51324 62.7132 1.27685 63.5131 1.27685C64.2839 1.27685 64.9508 1.54604 65.5137 2.08594C66.0786 2.63032 66.3692 3.42213 66.3802 4.46605C66.3741 5.08747 66.2817 5.58999 66.0996 5.97569C65.9148 6.36734 65.6808 6.6698 65.3987 6.88271C65.1212 7.09161 64.8387 7.23092 64.55 7.30465C64.2613 7.38628 64.0031 7.42664 63.7763 7.42664C62.9064 7.42104 62.1907 7.11867 61.6327 6.52006C61.055 5.9327 60.7627 5.13242 60.7566 4.12014ZM59.8624 4.36079C59.8557 5.184 60.1446 5.94243 60.7288 6.63345C61.3079 7.3607 62.2393 7.73343 63.5231 7.75659C64.6767 7.73916 65.5918 7.39096 66.2669 6.71003C66.9386 6.04045 67.2776 5.21164 67.2841 4.22081C67.2714 3.20314 66.919 2.40871 66.2249 1.83854C65.5465 1.27283 64.6637 0.987803 63.5782 0.98207C62.2879 1.0121 61.3471 1.39951 60.7514 2.14213C60.1526 2.86789 59.8557 3.60626 59.8624 4.36079Z" fill="#525252"/>
<path id="Vector_9" d="M34.9581 5.22848C34.9581 6.08907 34.9426 6.71807 34.9096 7.11305C34.8974 7.23986 34.8737 7.34202 34.839 7.4217C34.8031 7.50942 34.7405 7.56422 34.6481 7.58716C34.5575 7.60916 34.4664 7.62038 34.3737 7.62038C34.3269 7.629 34.3036 7.64643 34.3036 7.6738C34.3036 7.71679 34.3521 7.73893 34.4492 7.73893C34.5996 7.73893 34.7752 7.7341 34.9757 7.723C35.1805 7.71586 35.3045 7.71014 35.3404 7.71283C35.5345 7.72556 36.7513 7.74953 38.0549 7.76328C38.2348 7.76499 38.3629 7.75172 38.4276 7.73006C38.4913 7.70875 38.5349 7.64234 38.5589 7.53973C38.5861 7.42485 38.6154 7.2665 38.6406 7.07136C38.6652 6.87714 38.6778 6.7516 38.6794 6.69909C38.6824 6.62033 38.6666 6.57445 38.6218 6.57227C38.5818 6.57014 38.5539 6.61574 38.5418 6.69909C38.4931 7.03297 38.3544 7.24714 38.13 7.3251C38.0103 7.36662 37.8613 7.38997 37.6962 7.39972C37.5267 7.40993 37.3754 7.41601 37.2486 7.41703C36.8154 7.42002 36.0618 7.37837 35.9289 7.28174C35.7963 7.1852 35.7254 6.99327 35.7191 6.70916C35.7098 6.27244 35.7098 5.7807 35.7191 5.23265V4.47318C35.7191 4.43443 35.7396 4.41392 35.782 4.41392C36.1717 4.41392 37.0758 4.42413 37.5555 4.45587C37.7302 4.4671 37.8563 4.50894 37.9219 4.5696C37.983 4.62635 38.0156 4.69548 38.0281 4.75865C38.0499 4.86631 38.0645 4.96033 38.0645 5.03956C38.0645 5.09333 38.0863 5.1189 38.1315 5.1189C38.1662 5.1189 38.1904 5.09841 38.1927 5.057C38.1944 5.02488 38.1927 4.99038 38.1927 4.95907C38.1927 4.8325 38.1985 4.64583 38.2303 4.40529C38.2673 4.12702 38.3054 3.96353 38.3071 3.9195C38.3088 3.8757 38.2914 3.85163 38.2585 3.85163C38.2284 3.85163 38.1879 3.892 38.1253 3.96147C38.0546 4.04001 37.9055 4.07784 37.6917 4.08381C37.5536 4.08765 36.8344 4.09068 36.4784 4.09239C36.1129 4.09409 35.8775 4.10122 35.7725 4.10122C35.727 4.10122 35.7098 4.07381 35.7192 4.01605V1.62277C35.7192 1.56522 35.7364 1.53759 35.7725 1.53759C35.865 1.53759 36.0694 1.53588 36.383 1.53759C36.7 1.53973 37.3832 1.55263 37.4883 1.56215C37.7256 1.58402 37.8918 1.62337 37.983 1.67612C38.0682 1.72565 38.1213 1.78858 38.1394 1.85795C38.1726 1.98452 38.1927 2.08713 38.1927 2.16464C38.1927 2.24146 38.217 2.28034 38.2631 2.27874C38.3017 2.27745 38.3252 2.24007 38.3305 2.18219C38.3484 1.98395 38.3534 1.7903 38.3774 1.61271C38.408 1.38638 38.4505 1.25314 38.4528 1.209C38.455 1.16383 38.4401 1.13804 38.4166 1.13265C38.3758 1.13808 38.3336 1.15145 38.293 1.17281C38.2133 1.19036 38.0792 1.2133 37.8968 1.21637C37.1318 1.22863 35.9676 1.23277 35.3452 1.22508C35.1864 1.22295 34.8408 1.20466 34.3129 1.19898C34.2143 1.19898 34.1655 1.22042 34.1655 1.26398C34.1655 1.29974 34.1908 1.3173 34.2408 1.3173C34.3507 1.3173 34.4537 1.32569 34.5481 1.34311C34.7013 1.3649 34.8065 1.4165 34.8596 1.49882C34.9067 1.57231 34.9332 1.68614 34.9392 1.83771C34.952 1.92267 34.9581 2.54719 34.9581 3.71172L34.9581 5.22848Z" fill="#525252"/>
</g>
</g>
<defs>
<clipPath id="clip0_3919_3325">
<rect width="70" height="8" fill="white"/>
</clipPath>
</defs>
</svg>
