<svg width="70" height="21" viewBox="0 0 70 21" fill="none" xmlns="http://www.w3.org/2000/svg">
<g id="Frame" clip-path="url(#clip0_3919_3311)">
<g id="Group">
<path id="Vector" d="M66.1341 4.11676L63.7979 9.84883L62.2181 5.85055C61.6089 4.18928 59.7379 4.36397 59.7379 4.36397H54.3659C51.9995 4.36397 49.9813 5.83737 49.2081 7.90408C49.2081 7.88101 49.2115 7.85464 49.2115 7.83156C49.2115 3.84318 45.9314 0.609619 41.8814 0.609619H36.2015V3.93547H37.6407V9.3544C37.4232 6.56253 35.0501 4.36397 32.1583 4.36397C29.3033 4.36397 26.957 6.50979 26.6859 9.25222C26.4181 6.50979 24.0718 4.36397 21.2135 4.36397C18.6597 4.36397 16.5142 6.07799 15.895 8.4018C15.8984 8.32599 15.9017 8.25018 15.9017 8.17107V5.27372H9.07376V8.51387H12.3639C12.1865 10.5806 10.426 12.2023 8.28051 12.2023C6.01791 12.2023 4.18373 10.396 4.18373 8.16777C4.18373 5.93955 6.01791 4.13324 8.28051 4.13324H15.885V0.635989H8.25038C4.02307 0.635989 0.595703 4.00799 0.595703 8.17107C0.595703 12.3342 4.02307 15.7094 8.25038 15.7094C11.902 15.7094 14.9545 13.1879 15.7176 9.81587C15.7377 12.789 18.1911 15.1952 21.2135 15.1952C24.0685 15.1952 26.4148 13.0527 26.6859 10.307C26.9536 13.0494 29.2999 15.1952 32.1583 15.1952C35.0501 15.1952 37.4198 12.9967 37.6407 10.2048V15.0535H41.8814C45.1649 15.0535 47.9429 12.9275 48.8768 9.99716C48.9906 12.8813 51.4071 15.0766 54.3693 15.1952C55.2529 15.2282 56.4009 14.8063 56.4009 14.8063C56.759 14.6646 57.1172 14.7371 57.1172 14.7371H58.8409V7.1954C59.4534 7.1954 59.4869 7.51513 59.4869 7.51513L62.2181 13.9559L61.9302 14.8063C61.2474 16.6093 59.7379 16.3291 59.7379 16.3291H58.7673V18.6991H61.8934C64.0489 18.5936 64.5509 16.5401 64.5509 16.5401L69.4042 4.12006H66.1341V4.11676ZM21.2135 12.3968C19.7441 12.3968 18.5526 11.2266 18.5526 9.77961C18.5526 8.33258 19.7441 7.15914 21.2135 7.15914C22.6828 7.15914 23.8744 8.33258 23.8744 9.77961C23.8744 11.2266 22.6828 12.3968 21.2135 12.3968ZM32.1583 12.3968C30.6889 12.3968 29.4974 11.2266 29.4974 9.77961C29.4974 8.33258 30.6889 7.15914 32.1583 7.15914C33.6276 7.15914 34.8192 8.33258 34.8192 9.77961C34.8192 11.2266 33.6276 12.3968 32.1583 12.3968ZM41.8413 11.7244H40.8706V3.93877H41.8413C44.0235 3.93877 45.7941 5.68245 45.7941 7.83156C45.7975 9.98397 44.0235 11.7244 41.8413 11.7244ZM55.688 12.0408C55.293 12.2649 54.8579 12.3968 54.3659 12.3968C52.8999 12.3968 51.7084 11.2233 51.7084 9.77961C51.7084 8.33258 52.8999 7.15914 54.3659 7.15914C54.8378 7.15914 55.3064 7.2778 55.688 7.49535V12.0408Z" fill="#DF610F"/>
<path id="Vector_2" d="M42.2429 16.0193H41.5835V16.7708H42.2429V16.0193Z" fill="#DF610F"/>
<path id="Vector_3" d="M41.4029 16.428H38.5948C38.5479 17.4267 38.4542 17.73 37.8818 17.8552V18.7419C38.3504 18.6529 38.7554 18.498 39.0131 18.3167C39.2775 18.1222 39.4081 17.8783 39.5252 17.341L39.5487 17.229H41.4464V18.3694C41.4397 19.3286 41.0916 19.5791 39.7562 19.589H38.2701V20.3735H39.2776C40.767 20.3735 41.2423 20.3043 41.8046 20.0142C42.4137 19.6615 42.571 19.2924 42.5777 18.2244V16.9092H41.4029V16.428Z" fill="#DF610F"/>
<path id="Vector_4" d="M43.0893 16.0193H42.4399V16.7708H43.0893V16.0193Z" fill="#DF610F"/>
<path id="Vector_5" d="M52.6888 16.0193H52.0361V16.7708H52.6888V16.0193Z" fill="#DF610F"/>
<path id="Vector_6" d="M51.8424 16.0193H51.1797V16.7708H51.8424V16.0193Z" fill="#DF610F"/>
<path id="Vector_7" d="M45.8374 19.022C45.8407 19.2132 45.7905 19.3417 45.6734 19.4406C45.5027 19.5856 45.1947 19.6483 44.6492 19.6483H43.3706V20.3866H44.4718C45.5495 20.3833 45.9779 20.3141 46.3093 20.0965C46.6741 19.846 46.8013 19.4999 46.7946 18.7715V17.5947H45.8374V19.022Z" fill="#DF610F"/>
<path id="Vector_8" d="M47.5981 18.409H49.5997L49.5963 18.5441C49.5896 18.8869 49.5829 18.9858 49.5361 19.0946C49.439 19.3517 49.1043 19.5099 48.6391 19.5165H47.9195V20.3636H48.9503C49.6867 20.3537 50.2189 20.1395 50.4933 19.7407C50.6875 19.4605 50.7444 19.2232 50.7711 18.5408L50.7778 18.4123H52.438V17.6575H47.5981V18.409Z" fill="#DF610F"/>
<path id="Vector_9" d="M47.916 16.3555V17.1268H52.0429V16.9092H51.012V16.3555H47.916Z" fill="#DF610F"/>
<path id="Vector_10" d="M56.086 17.051L53.0938 18.0761V18.9199L55.0919 18.2541V20.3669H56.2031V17.875L56.3036 17.8388C57.7495 17.3213 57.8934 17.2092 57.947 16.2039H56.8157C56.7655 16.7444 56.6483 16.8631 56.086 17.051Z" fill="#DF610F"/>
<path id="Vector_11" d="M44.7599 18.8705H45.5867L45.5699 18.7914C45.4795 18.3661 45.3992 18.0629 45.2888 17.7036L45.2754 17.6575H44.4453L44.4721 17.7399C44.5792 18.0959 44.6763 18.4683 44.7499 18.8177L44.7599 18.8705Z" fill="#DF610F"/>
<path id="Vector_12" d="M44.1945 17.6575H43.3477L43.3711 17.7399C43.4882 18.142 43.5485 18.3892 43.6422 18.8177L43.6522 18.8705H44.5124L44.4923 18.7914C44.3518 18.1947 44.2882 17.9508 44.2078 17.7036L44.1945 17.6575Z" fill="#DF610F"/>
</g>
</g>
<defs>
<clipPath id="clip0_3919_3311">
<rect width="70" height="21" fill="white"/>
</clipPath>
</defs>
</svg>
